# xmcd
# Copyright (C) 1995-1998 Ti Kan
#
# Track frame offsets:
#       150
#       8656
#       24867
#       42695
#       58548
#       78838
#       104236
#       127095
#       144072
#       163475
#       187979
#       206561
#       215780
#       234513
#       254496
#       268001
#
# Disc length: 3797 seconds
#
# Revision: 0
# Processed by: cddbd v1.5.2PL0 Copyright (c) Steve Scherf et al.
# Submitted via: CD-Transfer v1.0
#
DISCID=e90ed310
DTITLE=Alicia Keys - 
DYEAR=2002
DGENRE=
TTITLE0=Piano&i
TTITLE1=Girlfriend
TTITLE2=How Come You Don't Call Me
TTITLE3=Fallin'
TTITLE4=Troubles
TTITLE5=Rock With U
TTITLE6=A Woman's Worth
TTITLE7=Jane Doe
TTITLE8=Goodby
TTITLE9=The Life
TTITLE10=Mr.man
TTITLE11=Never Felt This
TTITLE12=Way
TTITLE13=Butterflyz
TTITLE14=Why Do I Feel So Sad
TTITLE15=Caged Bird
EXTD=
EXTT0=
EXTT1=
EXTT2=
EXTT3=
EXTT4=
EXTT5=
EXTT6=
EXTT7=
EXTT8=
EXTT9=
EXTT10=
EXTT11=
EXTT12=
EXTT13=
EXTT14=
EXTT15=
PLAYORDER=
